solid OpenSCAD_Model
  facet normal -1 0 0
    outer loop
      vertex 0 0 21.3
      vertex 0 5 23
      vertex 0 5 21.3
    endloop
  endfacet
  facet normal -1 -0 0
    outer loop
      vertex 0 5 23
      vertex 0 0 21.3
      vertex 0 0 23
    endloop
  endfacet
  facet normal -1 0 0
    outer loop
      vertex 0 0 14.2
      vertex 0 5 15.9
      vertex 0 5 14.2
    endloop
  endfacet
  facet normal -1 -0 0
    outer loop
      vertex 0 5 15.9
      vertex 0 0 14.2
      vertex 0 0 15.9
    endloop
  endfacet
  facet normal -1 0 0
    outer loop
      vertex 0 0 7.1
      vertex 0 5 8.8
      vertex 0 5 7.1
    endloop
  endfacet
  facet normal -1 -0 0
    outer loop
      vertex 0 5 8.8
      vertex 0 0 7.1
      vertex 0 0 8.8
    endloop
  endfacet
  facet normal -1 0 0
    outer loop
      vertex 0 10 21.3
      vertex 0 22.2 23
      vertex 0 22.2 21.3
    endloop
  endfacet
  facet normal -1 -0 0
    outer loop
      vertex 0 22.2 23
      vertex 0 10 21.3
      vertex 0 10 23
    endloop
  endfacet
  facet normal -1 0 0
    outer loop
      vertex 0 10 14.2
      vertex 0 22.2 15.9
      vertex 0 22.2 14.2
    endloop
  endfacet
  facet normal -1 -0 0
    outer loop
      vertex 0 22.2 15.9
      vertex 0 10 14.2
      vertex 0 10 15.9
    endloop
  endfacet
  facet normal -1 0 0
    outer loop
      vertex 0 10 7.1
      vertex 0 22.2 8.8
      vertex 0 22.2 7.1
    endloop
  endfacet
  facet normal -1 -0 0
    outer loop
      vertex 0 22.2 8.8
      vertex 0 10 7.1
      vertex 0 10 8.8
    endloop
  endfacet
  facet normal -1 0 0
    outer loop
      vertex 0 32 0
      vertex 0 27.2 1.7
      vertex 0 32 1.7
    endloop
  endfacet
  facet normal -1 0 0
    outer loop
      vertex 0 22.2 7.1
      vertex 0 27.2 7.1
      vertex 0 27.2 1.7
    endloop
  endfacet
  facet normal -1 0 0
    outer loop
      vertex 0 27.2 7.1
      vertex 0 22.2 7.1
      vertex 0 27.2 8.8
    endloop
  endfacet
  facet normal -1 0 0
    outer loop
      vertex 0 27.2 8.8
      vertex 0 22.2 8.8
      vertex 0 27.2 14.2
    endloop
  endfacet
  facet normal -1 0 0
    outer loop
      vertex 0 22.2 14.2
      vertex 0 27.2 14.2
      vertex 0 22.2 8.8
    endloop
  endfacet
  facet normal -1 0 0
    outer loop
      vertex 0 22.2 15.9
      vertex 0 27.2 15.9
      vertex 0 22.2 14.2
    endloop
  endfacet
  facet normal -1 0 0
    outer loop
      vertex 0 27.2 15.9
      vertex 0 22.2 15.9
      vertex 0 27.2 21.3
    endloop
  endfacet
  facet normal -1 0 0
    outer loop
      vertex 0 22.2 7.1
      vertex 0 27.2 1.7
      vertex 0 22.2 1.7
    endloop
  endfacet
  facet normal -1 0 0
    outer loop
      vertex 0 32 0
      vertex 0 22.2 1.7
      vertex 0 27.2 1.7
    endloop
  endfacet
  facet normal -1 0 0
    outer loop
      vertex 0 32 0
      vertex 0 10 1.7
      vertex 0 22.2 1.7
    endloop
  endfacet
  facet normal -1 0 0
    outer loop
      vertex 0 5 7.1
      vertex 0 10 7.1
      vertex 0 10 1.7
    endloop
  endfacet
  facet normal -1 0 0
    outer loop
      vertex 0 10 7.1
      vertex 0 5 7.1
      vertex 0 10 8.8
    endloop
  endfacet
  facet normal -1 0 0
    outer loop
      vertex 0 10 8.8
      vertex 0 5 8.8
      vertex 0 10 14.2
    endloop
  endfacet
  facet normal -1 0 0
    outer loop
      vertex 0 5 14.2
      vertex 0 10 14.2
      vertex 0 5 8.8
    endloop
  endfacet
  facet normal -1 0 0
    outer loop
      vertex 0 5 15.9
      vertex 0 10 15.9
      vertex 0 5 14.2
    endloop
  endfacet
  facet normal -1 0 0
    outer loop
      vertex 0 10 15.9
      vertex 0 5 15.9
      vertex 0 10 21.3
    endloop
  endfacet
  facet normal -1 0 0
    outer loop
      vertex 0 5 7.1
      vertex 0 10 1.7
      vertex 0 5 1.7
    endloop
  endfacet
  facet normal -1 0 0
    outer loop
      vertex 0 0 0
      vertex 0 10 1.7
      vertex 0 32 0
    endloop
  endfacet
  facet normal -1 -0 0
    outer loop
      vertex 0 10 1.7
      vertex 0 0 0
      vertex 0 5 1.7
    endloop
  endfacet
  facet normal -1 -0 0
    outer loop
      vertex 0 5 1.7
      vertex 0 0 0
      vertex 0 0 1.7
    endloop
  endfacet
  facet normal -1 0 0
    outer loop
      vertex 0 27.2 7.1
      vertex 0 32 8.8
      vertex 0 32 7.1
    endloop
  endfacet
  facet normal -1 -0 0
    outer loop
      vertex 0 32 8.8
      vertex 0 27.2 7.1
      vertex 0 27.2 8.8
    endloop
  endfacet
  facet normal -1 0 0
    outer loop
      vertex 0 27.2 14.2
      vertex 0 32 15.9
      vertex 0 32 14.2
    endloop
  endfacet
  facet normal -1 -0 0
    outer loop
      vertex 0 32 15.9
      vertex 0 27.2 14.2
      vertex 0 27.2 15.9
    endloop
  endfacet
  facet normal -1 0 0
    outer loop
      vertex 0 27.2 21.3
      vertex 0 32 23
      vertex 0 32 21.3
    endloop
  endfacet
  facet normal -1 -0 0
    outer loop
      vertex 0 32 23
      vertex 0 27.2 21.3
      vertex 0 27.2 23
    endloop
  endfacet
  facet normal -1 0 0
    outer loop
      vertex 0 27.2 28.4
      vertex 0 32 30.1
      vertex 0 32 28.4
    endloop
  endfacet
  facet normal -1 -0 0
    outer loop
      vertex 0 27.2 8.8
      vertex 0 22.2 7.1
      vertex 0 22.2 8.8
    endloop
  endfacet
  facet normal -1 0 0
    outer loop
      vertex 0 27.2 14.2
      vertex 0 22.2 14.2
      vertex 0 27.2 15.9
    endloop
  endfacet
  facet normal -1 0 0
    outer loop
      vertex 0 22.2 21.3
      vertex 0 27.2 21.3
      vertex 0 22.2 15.9
    endloop
  endfacet
  facet normal -1 0 0
    outer loop
      vertex 0 27.2 21.3
      vertex 0 22.2 21.3
      vertex 0 27.2 23
    endloop
  endfacet
  facet normal -1 0 0
    outer loop
      vertex 0 22.2 23
      vertex 0 27.2 23
      vertex 0 22.2 21.3
    endloop
  endfacet
  facet normal -1 0 0
    outer loop
      vertex 0 27.2 23
      vertex 0 22.2 23
      vertex 0 27.2 28.4
    endloop
  endfacet
  facet normal -1 0 0
    outer loop
      vertex 0 22.2 28.4
      vertex 0 27.2 28.4
      vertex 0 22.2 23
    endloop
  endfacet
  facet normal -1 0 0
    outer loop
      vertex 0 22.2 28.4
      vertex 0 32 30.1
      vertex 0 27.2 28.4
    endloop
  endfacet
  facet normal -1 0 0
    outer loop
      vertex 0 10 28.4
      vertex 0 32 30.1
      vertex 0 22.2 28.4
    endloop
  endfacet
  facet normal -1 -0 0
    outer loop
      vertex 0 10 8.8
      vertex 0 5 7.1
      vertex 0 5 8.8
    endloop
  endfacet
  facet normal -1 0 0
    outer loop
      vertex 0 10 14.2
      vertex 0 5 14.2
      vertex 0 10 15.9
    endloop
  endfacet
  facet normal -1 0 0
    outer loop
      vertex 0 5 21.3
      vertex 0 10 21.3
      vertex 0 5 15.9
    endloop
  endfacet
  facet normal -1 0 0
    outer loop
      vertex 0 10 21.3
      vertex 0 5 21.3
      vertex 0 10 23
    endloop
  endfacet
  facet normal -1 0 0
    outer loop
      vertex 0 5 23
      vertex 0 10 23
      vertex 0 5 21.3
    endloop
  endfacet
  facet normal -1 0 0
    outer loop
      vertex 0 10 23
      vertex 0 5 23
      vertex 0 10 28.4
    endloop
  endfacet
  facet normal -1 0 0
    outer loop
      vertex 0 5 28.4
      vertex 0 10 28.4
      vertex 0 5 23
    endloop
  endfacet
  facet normal -1 0 0
    outer loop
      vertex 0 0 30.1
      vertex 0 10 28.4
      vertex 0 5 28.4
    endloop
  endfacet
  facet normal -1 0 0
    outer loop
      vertex 0 0 30.1
      vertex 0 5 28.4
      vertex 0 0 28.4
    endloop
  endfacet
  facet normal -1 0 0
    outer loop
      vertex 0 10 28.4
      vertex 0 0 30.1
      vertex 0 32 30.1
    endloop
  endfacet
  facet normal -0 0 1
    outer loop
      vertex 0 5 1.7
      vertex 10 0 1.7
      vertex 10 5 1.7
    endloop
  endfacet
  facet normal 0 0 1
    outer loop
      vertex 10 0 1.7
      vertex 0 5 1.7
      vertex 0 0 1.7
    endloop
  endfacet
  facet normal -0 0 1
    outer loop
      vertex 0 32 1.7
      vertex 10 27.2 1.7
      vertex 10 32 1.7
    endloop
  endfacet
  facet normal 0 0 1
    outer loop
      vertex 10 27.2 1.7
      vertex 0 32 1.7
      vertex 0 27.2 1.7
    endloop
  endfacet
  facet normal -0 0 1
    outer loop
      vertex 0 22.2 1.7
      vertex 10 10 1.7
      vertex 10 22.2 1.7
    endloop
  endfacet
  facet normal 0 0 1
    outer loop
      vertex 10 10 1.7
      vertex 0 22.2 1.7
      vertex 0 10 1.7
    endloop
  endfacet
  facet normal 1 -0 0
    outer loop
      vertex 10 0 8.8
      vertex 10 5 7.1
      vertex 10 5 8.8
    endloop
  endfacet
  facet normal 1 0 0
    outer loop
      vertex 10 5 7.1
      vertex 10 0 8.8
      vertex 10 0 7.1
    endloop
  endfacet
  facet normal 1 -0 0
    outer loop
      vertex 10 0 15.9
      vertex 10 5 14.2
      vertex 10 5 15.9
    endloop
  endfacet
  facet normal 1 0 0
    outer loop
      vertex 10 5 14.2
      vertex 10 0 15.9
      vertex 10 0 14.2
    endloop
  endfacet
  facet normal 1 -0 0
    outer loop
      vertex 10 0 23
      vertex 10 5 21.3
      vertex 10 5 23
    endloop
  endfacet
  facet normal 1 0 0
    outer loop
      vertex 10 5 21.3
      vertex 10 0 23
      vertex 10 0 21.3
    endloop
  endfacet
  facet normal 1 -0 0
    outer loop
      vertex 10 10 8.8
      vertex 10 22.2 7.1
      vertex 10 22.2 8.8
    endloop
  endfacet
  facet normal 1 0 0
    outer loop
      vertex 10 22.2 7.1
      vertex 10 10 8.8
      vertex 10 10 7.1
    endloop
  endfacet
  facet normal 1 -0 0
    outer loop
      vertex 10 10 15.9
      vertex 10 22.2 14.2
      vertex 10 22.2 15.9
    endloop
  endfacet
  facet normal 1 0 0
    outer loop
      vertex 10 22.2 14.2
      vertex 10 10 15.9
      vertex 10 10 14.2
    endloop
  endfacet
  facet normal 1 -0 0
    outer loop
      vertex 10 10 23
      vertex 10 22.2 21.3
      vertex 10 22.2 23
    endloop
  endfacet
  facet normal 1 0 0
    outer loop
      vertex 10 22.2 21.3
      vertex 10 10 23
      vertex 10 10 21.3
    endloop
  endfacet
  facet normal 1 0 0
    outer loop
      vertex 10 32 30.1
      vertex 10 27.2 28.4
      vertex 10 32 28.4
    endloop
  endfacet
  facet normal 1 0 0
    outer loop
      vertex 10 22.2 23
      vertex 10 27.2 23
      vertex 10 27.2 28.4
    endloop
  endfacet
  facet normal 1 0 0
    outer loop
      vertex 10 27.2 23
      vertex 10 22.2 23
      vertex 10 27.2 21.3
    endloop
  endfacet
  facet normal 1 0 0
    outer loop
      vertex 10 27.2 21.3
      vertex 10 22.2 21.3
      vertex 10 27.2 15.9
    endloop
  endfacet
  facet normal 1 0 0
    outer loop
      vertex 10 22.2 15.9
      vertex 10 27.2 15.9
      vertex 10 22.2 21.3
    endloop
  endfacet
  facet normal 1 0 0
    outer loop
      vertex 10 22.2 14.2
      vertex 10 27.2 14.2
      vertex 10 22.2 15.9
    endloop
  endfacet
  facet normal 1 0 0
    outer loop
      vertex 10 27.2 14.2
      vertex 10 22.2 14.2
      vertex 10 27.2 8.8
    endloop
  endfacet
  facet normal 1 0 0
    outer loop
      vertex 10 22.2 23
      vertex 10 27.2 28.4
      vertex 10 22.2 28.4
    endloop
  endfacet
  facet normal 1 0 0
    outer loop
      vertex 10 32 30.1
      vertex 10 22.2 28.4
      vertex 10 27.2 28.4
    endloop
  endfacet
  facet normal 1 0 0
    outer loop
      vertex 10 32 30.1
      vertex 10 10 28.4
      vertex 10 22.2 28.4
    endloop
  endfacet
  facet normal 1 0 0
    outer loop
      vertex 10 5 23
      vertex 10 10 23
      vertex 10 10 28.4
    endloop
  endfacet
  facet normal 1 0 0
    outer loop
      vertex 10 10 23
      vertex 10 5 23
      vertex 10 10 21.3
    endloop
  endfacet
  facet normal 1 0 0
    outer loop
      vertex 10 10 21.3
      vertex 10 5 21.3
      vertex 10 10 15.9
    endloop
  endfacet
  facet normal 1 0 0
    outer loop
      vertex 10 5 15.9
      vertex 10 10 15.9
      vertex 10 5 21.3
    endloop
  endfacet
  facet normal 1 0 0
    outer loop
      vertex 10 5 14.2
      vertex 10 10 14.2
      vertex 10 5 15.9
    endloop
  endfacet
  facet normal 1 0 0
    outer loop
      vertex 10 10 14.2
      vertex 10 5 14.2
      vertex 10 10 8.8
    endloop
  endfacet
  facet normal 1 0 0
    outer loop
      vertex 10 5 23
      vertex 10 10 28.4
      vertex 10 5 28.4
    endloop
  endfacet
  facet normal 1 -0 0
    outer loop
      vertex 10 0 30.1
      vertex 10 10 28.4
      vertex 10 32 30.1
    endloop
  endfacet
  facet normal 1 0 0
    outer loop
      vertex 10 10 28.4
      vertex 10 0 30.1
      vertex 10 5 28.4
    endloop
  endfacet
  facet normal 1 0 0
    outer loop
      vertex 10 5 28.4
      vertex 10 0 30.1
      vertex 10 0 28.4
    endloop
  endfacet
  facet normal 1 -0 0
    outer loop
      vertex 10 27.2 23
      vertex 10 32 21.3
      vertex 10 32 23
    endloop
  endfacet
  facet normal 1 0 0
    outer loop
      vertex 10 32 21.3
      vertex 10 27.2 23
      vertex 10 27.2 21.3
    endloop
  endfacet
  facet normal 1 -0 0
    outer loop
      vertex 10 27.2 15.9
      vertex 10 32 14.2
      vertex 10 32 15.9
    endloop
  endfacet
  facet normal 1 0 0
    outer loop
      vertex 10 32 14.2
      vertex 10 27.2 15.9
      vertex 10 27.2 14.2
    endloop
  endfacet
  facet normal 1 -0 0
    outer loop
      vertex 10 27.2 8.8
      vertex 10 32 7.1
      vertex 10 32 8.8
    endloop
  endfacet
  facet normal 1 0 0
    outer loop
      vertex 10 32 7.1
      vertex 10 27.2 8.8
      vertex 10 27.2 7.1
    endloop
  endfacet
  facet normal 1 -0 0
    outer loop
      vertex 10 27.2 1.7
      vertex 10 32 0
      vertex 10 32 1.7
    endloop
  endfacet
  facet normal 1 0 0
    outer loop
      vertex 10 27.2 21.3
      vertex 10 22.2 23
      vertex 10 22.2 21.3
    endloop
  endfacet
  facet normal 1 0 0
    outer loop
      vertex 10 27.2 15.9
      vertex 10 22.2 15.9
      vertex 10 27.2 14.2
    endloop
  endfacet
  facet normal 1 0 0
    outer loop
      vertex 10 22.2 8.8
      vertex 10 27.2 8.8
      vertex 10 22.2 14.2
    endloop
  endfacet
  facet normal 1 0 0
    outer loop
      vertex 10 27.2 8.8
      vertex 10 22.2 8.8
      vertex 10 27.2 7.1
    endloop
  endfacet
  facet normal 1 0 0
    outer loop
      vertex 10 22.2 7.1
      vertex 10 27.2 7.1
      vertex 10 22.2 8.8
    endloop
  endfacet
  facet normal 1 0 0
    outer loop
      vertex 10 27.2 7.1
      vertex 10 22.2 7.1
      vertex 10 27.2 1.7
    endloop
  endfacet
  facet normal 1 0 0
    outer loop
      vertex 10 22.2 1.7
      vertex 10 27.2 1.7
      vertex 10 22.2 7.1
    endloop
  endfacet
  facet normal 1 -0 0
    outer loop
      vertex 10 22.2 1.7
      vertex 10 32 0
      vertex 10 27.2 1.7
    endloop
  endfacet
  facet normal 1 -0 0
    outer loop
      vertex 10 10 1.7
      vertex 10 32 0
      vertex 10 22.2 1.7
    endloop
  endfacet
  facet normal 1 0 0
    outer loop
      vertex 10 10 21.3
      vertex 10 5 23
      vertex 10 5 21.3
    endloop
  endfacet
  facet normal 1 0 0
    outer loop
      vertex 10 10 15.9
      vertex 10 5 15.9
      vertex 10 10 14.2
    endloop
  endfacet
  facet normal 1 0 0
    outer loop
      vertex 10 5 8.8
      vertex 10 10 8.8
      vertex 10 5 14.2
    endloop
  endfacet
  facet normal 1 0 0
    outer loop
      vertex 10 10 8.8
      vertex 10 5 8.8
      vertex 10 10 7.1
    endloop
  endfacet
  facet normal 1 0 0
    outer loop
      vertex 10 5 7.1
      vertex 10 10 7.1
      vertex 10 5 8.8
    endloop
  endfacet
  facet normal 1 0 0
    outer loop
      vertex 10 10 7.1
      vertex 10 5 7.1
      vertex 10 10 1.7
    endloop
  endfacet
  facet normal 1 0 0
    outer loop
      vertex 10 5 1.7
      vertex 10 10 1.7
      vertex 10 5 7.1
    endloop
  endfacet
  facet normal 1 0 0
    outer loop
      vertex 10 0 0
      vertex 10 10 1.7
      vertex 10 5 1.7
    endloop
  endfacet
  facet normal 1 0 0
    outer loop
      vertex 10 0 0
      vertex 10 5 1.7
      vertex 10 0 1.7
    endloop
  endfacet
  facet normal 1 0 0
    outer loop
      vertex 10 10 1.7
      vertex 10 0 0
      vertex 10 32 0
    endloop
  endfacet
  facet normal 0 1 -0
    outer loop
      vertex 10 32 0
      vertex 0 32 1.7
      vertex 10 32 1.7
    endloop
  endfacet
  facet normal 0 1 0
    outer loop
      vertex 0 32 1.7
      vertex 10 32 0
      vertex 0 32 0
    endloop
  endfacet
  facet normal 0 0 -1
    outer loop
      vertex 0 0 0
      vertex 10 32 0
      vertex 10 0 0
    endloop
  endfacet
  facet normal -0 0 -1
    outer loop
      vertex 10 32 0
      vertex 0 0 0
      vertex 0 32 0
    endloop
  endfacet
  facet normal 0 -1 0
    outer loop
      vertex 0 0 0
      vertex 10 0 1.7
      vertex 0 0 1.7
    endloop
  endfacet
  facet normal 0 -1 -0
    outer loop
      vertex 10 0 1.7
      vertex 0 0 0
      vertex 10 0 0
    endloop
  endfacet
  facet normal -0 0 1
    outer loop
      vertex 0 5 8.8
      vertex 10 0 8.8
      vertex 10 5 8.8
    endloop
  endfacet
  facet normal 0 0 1
    outer loop
      vertex 10 0 8.8
      vertex 0 5 8.8
      vertex 0 0 8.8
    endloop
  endfacet
  facet normal -0 0 1
    outer loop
      vertex 0 32 8.8
      vertex 10 27.2 8.8
      vertex 10 32 8.8
    endloop
  endfacet
  facet normal 0 0 1
    outer loop
      vertex 10 27.2 8.8
      vertex 0 32 8.8
      vertex 0 27.2 8.8
    endloop
  endfacet
  facet normal -0 0 1
    outer loop
      vertex 0 22.2 8.8
      vertex 10 10 8.8
      vertex 10 22.2 8.8
    endloop
  endfacet
  facet normal 0 0 1
    outer loop
      vertex 10 10 8.8
      vertex 0 22.2 8.8
      vertex 0 10 8.8
    endloop
  endfacet
  facet normal 0 0 -1
    outer loop
      vertex 0 27.2 7.1
      vertex 10 32 7.1
      vertex 10 27.2 7.1
    endloop
  endfacet
  facet normal -0 0 -1
    outer loop
      vertex 10 32 7.1
      vertex 0 27.2 7.1
      vertex 0 32 7.1
    endloop
  endfacet
  facet normal 0 0 -1
    outer loop
      vertex 0 0 7.1
      vertex 10 5 7.1
      vertex 10 0 7.1
    endloop
  endfacet
  facet normal -0 0 -1
    outer loop
      vertex 10 5 7.1
      vertex 0 0 7.1
      vertex 0 5 7.1
    endloop
  endfacet
  facet normal 0 0 -1
    outer loop
      vertex 0 10 7.1
      vertex 10 22.2 7.1
      vertex 10 10 7.1
    endloop
  endfacet
  facet normal -0 0 -1
    outer loop
      vertex 10 22.2 7.1
      vertex 0 10 7.1
      vertex 0 22.2 7.1
    endloop
  endfacet
  facet normal 0 -1 0
    outer loop
      vertex 0 0 7.1
      vertex 10 0 8.8
      vertex 0 0 8.8
    endloop
  endfacet
  facet normal 0 -1 -0
    outer loop
      vertex 10 0 8.8
      vertex 0 0 7.1
      vertex 10 0 7.1
    endloop
  endfacet
  facet normal 0 1 -0
    outer loop
      vertex 10 32 7.1
      vertex 0 32 8.8
      vertex 10 32 8.8
    endloop
  endfacet
  facet normal 0 1 0
    outer loop
      vertex 0 32 8.8
      vertex 10 32 7.1
      vertex 0 32 7.1
    endloop
  endfacet
  facet normal -0 0 1
    outer loop
      vertex 0 5 15.9
      vertex 10 0 15.9
      vertex 10 5 15.9
    endloop
  endfacet
  facet normal 0 0 1
    outer loop
      vertex 10 0 15.9
      vertex 0 5 15.9
      vertex 0 0 15.9
    endloop
  endfacet
  facet normal -0 0 1
    outer loop
      vertex 0 32 15.9
      vertex 10 27.2 15.9
      vertex 10 32 15.9
    endloop
  endfacet
  facet normal 0 0 1
    outer loop
      vertex 10 27.2 15.9
      vertex 0 32 15.9
      vertex 0 27.2 15.9
    endloop
  endfacet
  facet normal -0 0 1
    outer loop
      vertex 0 22.2 15.9
      vertex 10 10 15.9
      vertex 10 22.2 15.9
    endloop
  endfacet
  facet normal 0 0 1
    outer loop
      vertex 10 10 15.9
      vertex 0 22.2 15.9
      vertex 0 10 15.9
    endloop
  endfacet
  facet normal 0 0 -1
    outer loop
      vertex 0 27.2 14.2
      vertex 10 32 14.2
      vertex 10 27.2 14.2
    endloop
  endfacet
  facet normal -0 0 -1
    outer loop
      vertex 10 32 14.2
      vertex 0 27.2 14.2
      vertex 0 32 14.2
    endloop
  endfacet
  facet normal 0 0 -1
    outer loop
      vertex 0 0 14.2
      vertex 10 5 14.2
      vertex 10 0 14.2
    endloop
  endfacet
  facet normal -0 0 -1
    outer loop
      vertex 10 5 14.2
      vertex 0 0 14.2
      vertex 0 5 14.2
    endloop
  endfacet
  facet normal 0 0 -1
    outer loop
      vertex 0 10 14.2
      vertex 10 22.2 14.2
      vertex 10 10 14.2
    endloop
  endfacet
  facet normal -0 0 -1
    outer loop
      vertex 10 22.2 14.2
      vertex 0 10 14.2
      vertex 0 22.2 14.2
    endloop
  endfacet
  facet normal 0 -1 0
    outer loop
      vertex 0 0 14.2
      vertex 10 0 15.9
      vertex 0 0 15.9
    endloop
  endfacet
  facet normal 0 -1 -0
    outer loop
      vertex 10 0 15.9
      vertex 0 0 14.2
      vertex 10 0 14.2
    endloop
  endfacet
  facet normal 0 1 -0
    outer loop
      vertex 10 32 14.2
      vertex 0 32 15.9
      vertex 10 32 15.9
    endloop
  endfacet
  facet normal 0 1 0
    outer loop
      vertex 0 32 15.9
      vertex 10 32 14.2
      vertex 0 32 14.2
    endloop
  endfacet
  facet normal -0 0 1
    outer loop
      vertex 0 5 23
      vertex 10 0 23
      vertex 10 5 23
    endloop
  endfacet
  facet normal 0 0 1
    outer loop
      vertex 10 0 23
      vertex 0 5 23
      vertex 0 0 23
    endloop
  endfacet
  facet normal -0 0 1
    outer loop
      vertex 0 32 23
      vertex 10 27.2 23
      vertex 10 32 23
    endloop
  endfacet
  facet normal 0 0 1
    outer loop
      vertex 10 27.2 23
      vertex 0 32 23
      vertex 0 27.2 23
    endloop
  endfacet
  facet normal -0 0 1
    outer loop
      vertex 0 22.2 23
      vertex 10 10 23
      vertex 10 22.2 23
    endloop
  endfacet
  facet normal 0 0 1
    outer loop
      vertex 10 10 23
      vertex 0 22.2 23
      vertex 0 10 23
    endloop
  endfacet
  facet normal 0 0 -1
    outer loop
      vertex 0 27.2 21.3
      vertex 10 32 21.3
      vertex 10 27.2 21.3
    endloop
  endfacet
  facet normal -0 0 -1
    outer loop
      vertex 10 32 21.3
      vertex 0 27.2 21.3
      vertex 0 32 21.3
    endloop
  endfacet
  facet normal 0 0 -1
    outer loop
      vertex 0 0 21.3
      vertex 10 5 21.3
      vertex 10 0 21.3
    endloop
  endfacet
  facet normal -0 0 -1
    outer loop
      vertex 10 5 21.3
      vertex 0 0 21.3
      vertex 0 5 21.3
    endloop
  endfacet
  facet normal 0 0 -1
    outer loop
      vertex 0 10 21.3
      vertex 10 22.2 21.3
      vertex 10 10 21.3
    endloop
  endfacet
  facet normal -0 0 -1
    outer loop
      vertex 10 22.2 21.3
      vertex 0 10 21.3
      vertex 0 22.2 21.3
    endloop
  endfacet
  facet normal 0 -1 0
    outer loop
      vertex 0 0 21.3
      vertex 10 0 23
      vertex 0 0 23
    endloop
  endfacet
  facet normal 0 -1 -0
    outer loop
      vertex 10 0 23
      vertex 0 0 21.3
      vertex 10 0 21.3
    endloop
  endfacet
  facet normal 0 1 -0
    outer loop
      vertex 10 32 21.3
      vertex 0 32 23
      vertex 10 32 23
    endloop
  endfacet
  facet normal 0 1 0
    outer loop
      vertex 0 32 23
      vertex 10 32 21.3
      vertex 0 32 21.3
    endloop
  endfacet
  facet normal -0 0 1
    outer loop
      vertex 0 32 30.1
      vertex 10 0 30.1
      vertex 10 32 30.1
    endloop
  endfacet
  facet normal 0 0 1
    outer loop
      vertex 10 0 30.1
      vertex 0 32 30.1
      vertex 0 0 30.1
    endloop
  endfacet
  facet normal 0 1 -0
    outer loop
      vertex 10 32 28.4
      vertex 0 32 30.1
      vertex 10 32 30.1
    endloop
  endfacet
  facet normal 0 1 0
    outer loop
      vertex 0 32 30.1
      vertex 10 32 28.4
      vertex 0 32 28.4
    endloop
  endfacet
  facet normal 0 0 -1
    outer loop
      vertex 0 10 28.4
      vertex 10 22.2 28.4
      vertex 10 10 28.4
    endloop
  endfacet
  facet normal -0 0 -1
    outer loop
      vertex 10 22.2 28.4
      vertex 0 10 28.4
      vertex 0 22.2 28.4
    endloop
  endfacet
  facet normal 0 0 -1
    outer loop
      vertex 0 27.2 28.4
      vertex 10 32 28.4
      vertex 10 27.2 28.4
    endloop
  endfacet
  facet normal -0 0 -1
    outer loop
      vertex 10 32 28.4
      vertex 0 27.2 28.4
      vertex 0 32 28.4
    endloop
  endfacet
  facet normal 0 0 -1
    outer loop
      vertex 0 0 28.4
      vertex 10 5 28.4
      vertex 10 0 28.4
    endloop
  endfacet
  facet normal -0 0 -1
    outer loop
      vertex 10 5 28.4
      vertex 0 0 28.4
      vertex 0 5 28.4
    endloop
  endfacet
  facet normal 0 -1 0
    outer loop
      vertex 0 0 28.4
      vertex 10 0 30.1
      vertex 0 0 30.1
    endloop
  endfacet
  facet normal 0 -1 -0
    outer loop
      vertex 10 0 30.1
      vertex 0 0 28.4
      vertex 10 0 28.4
    endloop
  endfacet
  facet normal 0 1 -0
    outer loop
      vertex 10 10 23
      vertex 0 10 28.4
      vertex 10 10 28.4
    endloop
  endfacet
  facet normal 0 1 0
    outer loop
      vertex 0 10 28.4
      vertex 10 10 23
      vertex 0 10 23
    endloop
  endfacet
  facet normal 0 1 -0
    outer loop
      vertex 10 10 1.7
      vertex 0 10 7.1
      vertex 10 10 7.1
    endloop
  endfacet
  facet normal 0 1 0
    outer loop
      vertex 0 10 7.1
      vertex 10 10 1.7
      vertex 0 10 1.7
    endloop
  endfacet
  facet normal 0 1 -0
    outer loop
      vertex 10 10 8.8
      vertex 0 10 14.2
      vertex 10 10 14.2
    endloop
  endfacet
  facet normal 0 1 0
    outer loop
      vertex 0 10 14.2
      vertex 10 10 8.8
      vertex 0 10 8.8
    endloop
  endfacet
  facet normal 0 1 -0
    outer loop
      vertex 10 10 15.9
      vertex 0 10 21.3
      vertex 10 10 21.3
    endloop
  endfacet
  facet normal 0 1 0
    outer loop
      vertex 0 10 21.3
      vertex 10 10 15.9
      vertex 0 10 15.9
    endloop
  endfacet
  facet normal 0 -1 0
    outer loop
      vertex 0 5 23
      vertex 10 5 28.4
      vertex 0 5 28.4
    endloop
  endfacet
  facet normal 0 -1 -0
    outer loop
      vertex 10 5 28.4
      vertex 0 5 23
      vertex 10 5 23
    endloop
  endfacet
  facet normal 0 -1 0
    outer loop
      vertex 0 5 1.7
      vertex 10 5 7.1
      vertex 0 5 7.1
    endloop
  endfacet
  facet normal 0 -1 -0
    outer loop
      vertex 10 5 7.1
      vertex 0 5 1.7
      vertex 10 5 1.7
    endloop
  endfacet
  facet normal 0 -1 0
    outer loop
      vertex 0 5 8.8
      vertex 10 5 14.2
      vertex 0 5 14.2
    endloop
  endfacet
  facet normal 0 -1 -0
    outer loop
      vertex 10 5 14.2
      vertex 0 5 8.8
      vertex 10 5 8.8
    endloop
  endfacet
  facet normal 0 -1 0
    outer loop
      vertex 0 5 15.9
      vertex 10 5 21.3
      vertex 0 5 21.3
    endloop
  endfacet
  facet normal 0 -1 -0
    outer loop
      vertex 10 5 21.3
      vertex 0 5 15.9
      vertex 10 5 15.9
    endloop
  endfacet
  facet normal 0 -1 0
    outer loop
      vertex 0 22.2 23
      vertex 10 22.2 28.4
      vertex 0 22.2 28.4
    endloop
  endfacet
  facet normal 0 -1 -0
    outer loop
      vertex 10 22.2 28.4
      vertex 0 22.2 23
      vertex 10 22.2 23
    endloop
  endfacet
  facet normal 0 -1 0
    outer loop
      vertex 0 22.2 1.7
      vertex 10 22.2 7.1
      vertex 0 22.2 7.1
    endloop
  endfacet
  facet normal 0 -1 -0
    outer loop
      vertex 10 22.2 7.1
      vertex 0 22.2 1.7
      vertex 10 22.2 1.7
    endloop
  endfacet
  facet normal 0 -1 0
    outer loop
      vertex 0 22.2 8.8
      vertex 10 22.2 14.2
      vertex 0 22.2 14.2
    endloop
  endfacet
  facet normal 0 -1 -0
    outer loop
      vertex 10 22.2 14.2
      vertex 0 22.2 8.8
      vertex 10 22.2 8.8
    endloop
  endfacet
  facet normal 0 -1 0
    outer loop
      vertex 0 22.2 15.9
      vertex 10 22.2 21.3
      vertex 0 22.2 21.3
    endloop
  endfacet
  facet normal 0 -1 -0
    outer loop
      vertex 10 22.2 21.3
      vertex 0 22.2 15.9
      vertex 10 22.2 15.9
    endloop
  endfacet
  facet normal 0 1 -0
    outer loop
      vertex 10 27.2 23
      vertex 0 27.2 28.4
      vertex 10 27.2 28.4
    endloop
  endfacet
  facet normal 0 1 0
    outer loop
      vertex 0 27.2 28.4
      vertex 10 27.2 23
      vertex 0 27.2 23
    endloop
  endfacet
  facet normal 0 1 -0
    outer loop
      vertex 10 27.2 1.7
      vertex 0 27.2 7.1
      vertex 10 27.2 7.1
    endloop
  endfacet
  facet normal 0 1 0
    outer loop
      vertex 0 27.2 7.1
      vertex 10 27.2 1.7
      vertex 0 27.2 1.7
    endloop
  endfacet
  facet normal 0 1 -0
    outer loop
      vertex 10 27.2 8.8
      vertex 0 27.2 14.2
      vertex 10 27.2 14.2
    endloop
  endfacet
  facet normal 0 1 0
    outer loop
      vertex 0 27.2 14.2
      vertex 10 27.2 8.8
      vertex 0 27.2 8.8
    endloop
  endfacet
  facet normal 0 1 -0
    outer loop
      vertex 10 27.2 15.9
      vertex 0 27.2 21.3
      vertex 10 27.2 21.3
    endloop
  endfacet
  facet normal 0 1 0
    outer loop
      vertex 0 27.2 21.3
      vertex 10 27.2 15.9
      vertex 0 27.2 15.9
    endloop
  endfacet
endsolid OpenSCAD_Model
