<?xml version="1.0" encoding="utf-8"?>
<!-- Generator: Adobe Illustrator 26.4.1, SVG Export Plug-In . SVG Version: 6.00 Build 0)  -->
<svg version="1.1" id="レイヤー_1" xmlns="http://www.w3.org/2000/svg" xmlns:xlink="http://www.w3.org/1999/xlink" x="0px"
	 y="0px" viewBox="0 0 850.4 566.9" style="enable-background:new 0 0 850.4 566.9;" xml:space="preserve">
<style type="text/css">
	.st0{fill:#FFFFFF;stroke:#000000;stroke-miterlimit:10;}
</style>
<path class="st0" d="M660.4,327.6h-93.5c-4.7,0-8.5-3.8-8.5-8.5V150.8c0-4.7,3.8-8.5,8.5-8.5h42.5h12c4.7,0,8.5-3.8,8.5-8.5V85.6
	c0-4.7-3.8-8.5-8.5-8.5h-12h-51H362.7c-4.7,0-8.5-3.8-8.5-8.5V23.3c0-4.7-3.8-8.5-8.5-8.5h-25.5c-4.7,0-8.5,3.8-8.5,8.5v45.3
	c0,4.7-3.8,8.5-8.5,8.5H192.7c-4.7,0-8.5,3.8-8.5,8.5v368.5c0,4.7,3.8,8.5,8.5,8.5h110.6c4.7,0,8.5,3.8,8.5,8.5v45.4
	c0,4.7,3.8,8.5,8.5,8.5h25.5c4.7,0,8.5-3.8,8.5-8.5v-45.4c0-4.7,3.8-8.5,8.5-8.5h153.1c4.7,0,8.5,3.8,8.5,8.5v45.4
	c0,4.7,3.8,8.5,8.5,8.5h17c4.7,0,8.5-3.8,8.5-8.5v-53.9v-98.1c0-4.7,3.8-8.5,8.5-8.5h93.5c4.7,0,8.5-3.8,8.5-8.5v-11.3
	C668.9,331.4,665.1,327.6,660.4,327.6z"/>
</svg>
