<?xml version="1.0" encoding="utf-8"?>
<!-- Generator: Adobe Illustrator 26.0.3, SVG Export Plug-In . SVG Version: 6.00 Build 0)  -->
<svg version="1.0" id="レイヤー_1" xmlns="http://www.w3.org/2000/svg" xmlns:xlink="http://www.w3.org/1999/xlink" x="0px"
	 y="0px" viewBox="0 0 850.39 566.93" style="enable-background:new 0 0 850.39 566.93;" xml:space="preserve">
<style type="text/css">
	.st0{fill:#FFFFFF;stroke:#000000;stroke-miterlimit:10;}
</style>
<path class="st0" d="M438.36,66.11h-51.02h-195.6c-4.7,0-8.5-3.81-8.5-8.5V12.25c0-4.7-3.81-8.5-8.5-8.5h-25.51
	c-4.7,0-8.5,3.81-8.5,8.5V57.6c0,4.7-3.81,8.5-8.5,8.5H21.66c-4.7,0-8.5,3.81-8.5,8.5v368.5c0,4.7,3.81,8.5,8.5,8.5h110.55
	c4.7,0,8.5,3.81,8.5,8.5v45.36c0,4.7,3.81,8.5,8.5,8.5h25.51c4.7,0,8.5-3.81,8.5-8.5v-45.36c0-4.7,3.81-8.5,8.5-8.5h153.07
	c4.7,0,8.5,3.81,8.5,8.5v45.36c0,4.7,3.81,8.5,8.5,8.5h17.01c4.7,0,8.5-3.81,8.5-8.5v-53.87V139.81c0-4.7,3.81-8.5,8.5-8.5h42.52
	h12.05c4.7,0,8.5-3.81,8.5-8.5V74.61c0-4.7-3.81-8.5-8.5-8.5H438.36z"/>
</svg>
